<?xml version="1.0" encoding="utf-8"?>
<!-- Generator: Adobe Illustrator 24.0.3, SVG Export Plug-In . SVG Version: 6.00 Build 0)  -->
<svg version="1.1" id="Layer_1" xmlns="http://www.w3.org/2000/svg" xmlns:xlink="http://www.w3.org/1999/xlink" x="0px" y="0px"
	 viewBox="0 0 94 24" style="enable-background:new 0 0 94 24;" xml:space="preserve">
<style type="text/css">
	.st0{fill:#FFFFFF;}
	.st1{fill:#CE2127;}
	.st2{fill:#010101;}
	.st3{enable-background:new    ;}
</style>
<g id="Group_1938" transform="translate(1751.941 -536)">
	<path id="Path_1806" class="st0" d="M-1724.5,536.5c1.9,0.3,3.3,2,3,3.9c-0.3,1.9-2,3.3-3.9,3c-1.9-0.3-3.3-2-3-3.9
		c0.2-1.8,1.8-3.1,3.6-3C-1724.7,536.5-1724.6,536.5-1724.5,536.5 M-1724.3,543.4c1.9-0.3,3.1-2.1,2.8-3.9c-0.3-1.5-1.5-2.7-3-2.8
		c-0.3,0-0.6,0-0.9,0c-0.4,0.1-0.7,0.2-1,0.4c1.6,0.6,2.5,1.4,2.6,2.2c0,0.5-0.2,0.9-0.6,1.2l2.3-0.2c0.1,0,0.1,0.1,0,0.1l-5.5,1.6
		c0.6,0.8,1.4,1.3,2.4,1.4C-1724.9,543.5-1724.6,543.5-1724.3,543.4 M-1725.8,540.2c0.3-1.1,0-2.2-0.9-3c-1.2,0.7-1.8,2.1-1.5,3.5
		c0.1,0.5,0.2,0.9,0.5,1.3C-1726.8,541.7-1726.1,541.1-1725.8,540.2"/>
	<path id="Path_1807" class="st1" d="M-1721.5,539.5c0.3,1.9-0.9,3.6-2.8,3.9c-0.3,0.1-0.6,0.1-0.9,0c-1-0.1-1.8-0.6-2.4-1.4
		l5.5-1.6c0.1,0,0.1-0.1,0-0.1l-2.3,0.2c0.4-0.3,0.6-0.8,0.6-1.2c-0.1-0.9-1-1.7-2.6-2.2c0.3-0.2,0.7-0.3,1-0.3
		c0.3-0.1,0.6-0.1,0.9,0C-1723,536.9-1721.7,538-1721.5,539.5 M-1728.2,540.7c0.1,0.5,0.2,0.9,0.5,1.3c0.9-0.2,1.7-0.8,1.9-1.8
		c0.3-1.1,0-2.2-0.9-3C-1727.8,537.9-1728.4,539.3-1728.2,540.7"/>
	<path id="Path_1808" class="st2" d="M-1702.5,541.5v-1.2h-1.2v1.2h-0.7v-2.8h0.7v1.1h1.2v-1.1h0.7v2.8H-1702.5z"/>
	<path id="Path_1809" class="st2" d="M-1716.6,538.7v1.8c0,0.2,0,0.3,0.1,0.5c0.1,0.1,0.1,0.2,0.2,0.3c0.1,0.1,0.2,0.2,0.4,0.2
		c0.3,0.1,0.7,0.1,1,0c0.1,0,0.3-0.1,0.4-0.2c0.1-0.1,0.2-0.2,0.2-0.3c0.1-0.2,0.1-0.3,0.1-0.5v-1.8h-0.6v1.8c0,0.2,0,0.3-0.1,0.4
		c-0.1,0.1-0.2,0.2-0.4,0.2c-0.2,0-0.3,0-0.4-0.2c-0.1-0.1-0.1-0.3-0.1-0.4v-1.8H-1716.6z"/>
	<path id="Path_1810" class="st2" d="M-1718.5,541.5v-2.3h-0.8v-0.6h2.2v0.3c0,0.2-0.1,0.3-0.3,0.3c0,0,0,0,0,0h-0.5v2.3
		L-1718.5,541.5L-1718.5,541.5z"/>
	<rect id="Rectangle_1843" x="-1707.9" y="538.7" class="st2" width="0.6" height="2.8"/>
	<path id="Path_1811" class="st2" d="M-1710.1,540.2L-1710.1,540.2l0.9,1.1c0.1,0.1,0.3,0.2,0.4,0.2h0.5l-1.2-1.5l0,0l0,0l1-1.3
		h-0.7l-0.9,1.2l0,0v-1.3h-0.6v2.8h0.6V540.2L-1710.1,540.2z"/>
	<path id="Path_1812" class="st2" d="M-1711.6,541.5c-0.2,0-0.4-0.1-0.5-0.3l-0.5-0.8h-0.3v1.1h-0.6v-2.8h1.2c0.3,0,0.5,0.1,0.7,0.2
		c0.2,0.2,0.3,0.4,0.2,0.6c0,0.1,0,0.3-0.1,0.4c-0.1,0.1-0.2,0.3-0.4,0.3l0,0l0.8,1.2H-1711.6z M-1712.9,540h0.4
		c0.1,0,0.2,0,0.3-0.1c0.1-0.2,0.1-0.4,0-0.6c-0.1-0.1-0.2-0.1-0.3-0.1h-0.4V540z"/>
	<path id="Path_1813" class="st2" d="M-1706.8,541.4v-0.6c0.2,0.1,0.5,0.2,0.7,0.2c0.3,0,0.5-0.1,0.5-0.3c0-0.2-0.2-0.3-0.6-0.5
		c-0.4-0.1-0.6-0.4-0.6-0.8c0-0.6,0.4-0.8,1-0.8c0.2,0,0.5,0,0.7,0.1v0.5c-0.2-0.1-0.4-0.1-0.7-0.2c-0.3,0-0.4,0.1-0.4,0.3
		s0.2,0.2,0.5,0.4c0.4,0.2,0.8,0.3,0.8,0.9c0,0.6-0.4,0.9-1,0.9C-1706.2,541.6-1706.5,541.5-1706.8,541.4"/>
	<path id="Path_1814" class="st2" d="M-1686.5,541.5v-2.8h1.8v0.2c0,0.2-0.1,0.3-0.3,0.3c0,0,0,0,0,0h-0.8v0.6h1v0.5h-1v0.7h1.1v0.5
		L-1686.5,541.5L-1686.5,541.5z"/>
	<path id="Path_1815" class="st2" d="M-1693,541.5v-2.8h0.3c0.2,0,0.3,0.2,0.3,0.3v2h1.1v0.5H-1693z"/>
	<rect id="Rectangle_1844" x="-1697" y="538.7" class="st2" width="0.6" height="2.8"/>
	<path id="Path_1816" class="st2" d="M-1693.8,541.5c-0.2,0-0.4-0.1-0.5-0.3l-0.5-0.8h-0.3v1.1h-0.6v-2.8h1.2c0.3,0,0.5,0.1,0.7,0.2
		c0.2,0.2,0.3,0.4,0.2,0.6c0,0.1,0,0.3-0.1,0.4c-0.1,0.1-0.2,0.3-0.4,0.3l0,0l0.8,1.2H-1693.8z M-1695.1,540h0.4
		c0.1,0,0.2,0,0.3-0.1c0.1-0.2,0.1-0.4,0-0.6c-0.1-0.1-0.2-0.1-0.3-0.1h-0.4V540z"/>
	<path id="Path_1817" class="st2" d="M-1698.5,538.7h-0.7l-1.1,2.8h0.5c0.1,0,0.2-0.1,0.3-0.2l0.1-0.3h1.1l0.2,0.5h0.7
		L-1698.5,538.7z M-1699.3,540.5l0.2-0.7c0.1-0.2,0.1-0.3,0.2-0.5l0,0c0,0.1,0.1,0.3,0.2,0.5l0.2,0.7H-1699.3z"/>
	<path id="Path_1818" class="st2" d="M-1684.2,541.4v-0.6c0.2,0.1,0.5,0.2,0.7,0.2c0.3,0,0.5-0.1,0.5-0.3c0-0.2-0.2-0.3-0.6-0.5
		c-0.4-0.1-0.6-0.4-0.6-0.8c0-0.6,0.4-0.8,1-0.8c0.2,0,0.5,0,0.7,0.1v0.5c-0.2-0.1-0.4-0.1-0.7-0.2c-0.3,0-0.4,0.1-0.4,0.3
		s0.2,0.2,0.5,0.4c0.4,0.2,0.8,0.3,0.8,0.9c0,0.6-0.4,0.9-1,0.9C-1683.7,541.6-1684,541.5-1684.2,541.4"/>
	<path id="Path_1819" class="st2" d="M-1689.6,538.7h0.4c0.2,0,0.4,0.1,0.5,0.3l0.8,1.3c0.1,0.2,0.2,0.3,0.2,0.5l0,0v-2h0.6v2.8
		h-0.7l-1-1.5c-0.1-0.2-0.2-0.3-0.2-0.4l0,0v2h-0.6V538.7z"/>
	<rect id="Rectangle_1845" x="-1690.9" y="538.7" class="st2" width="0.6" height="2.8"/>
</g>
<g class="st3">
	<path class="st2" d="M2.5,14v7.5H0.9V11h1.8l3.6,6.7L9.8,11h1.7v10.5H9.8V14l-3.2,5.9H5.7L2.5,14z"/>
	<path class="st2" d="M15.6,10.9c0.2,0.2,0.3,0.5,0.3,0.8c0,0.3-0.1,0.6-0.3,0.8c-0.2,0.2-0.5,0.3-0.8,0.3s-0.6-0.1-0.8-0.3
		c-0.2-0.2-0.3-0.5-0.3-0.8c0-0.3,0.1-0.6,0.3-0.8s0.5-0.3,0.8-0.3S15.4,10.7,15.6,10.9z M14,13.8h1.7v7.7H14V13.8z"/>
	<path class="st2" d="M17.9,11h1.7v10.5h-1.7V11z"/>
	<path class="st2" d="M23,17.9c0,0.7,0.3,1.2,0.8,1.7c0.5,0.4,1.1,0.6,1.8,0.6c0.3,0,0.6,0,0.8-0.1s0.5-0.2,0.7-0.3
		c0.2-0.1,0.3-0.2,0.5-0.3c0.1-0.1,0.2-0.2,0.3-0.3l0.1-0.1l1,0.9c0,0.1-0.1,0.1-0.1,0.2c-0.1,0.1-0.2,0.2-0.4,0.4
		c-0.2,0.2-0.4,0.4-0.7,0.5c-0.2,0.1-0.6,0.3-1,0.4c-0.4,0.1-0.8,0.2-1.3,0.2c-1.2,0-2.1-0.4-2.9-1.1c-0.8-0.8-1.2-1.7-1.2-2.8
		c0-1.1,0.4-2.1,1.2-2.9c0.8-0.8,1.8-1.2,2.9-1.2c1,0,1.9,0.4,2.7,1.1c0.7,0.7,1.1,1.6,1.1,2.6l-0.1,0.5H23z M23.8,15.4
		c-0.4,0.3-0.7,0.8-0.8,1.3h4.6c-0.1-0.5-0.3-1-0.8-1.3c-0.4-0.3-0.9-0.5-1.5-0.5C24.8,14.9,24.3,15.1,23.8,15.4z"/>
	<path class="st2" d="M36,19.3c0,0.7-0.3,1.2-0.8,1.7s-1.2,0.7-2.2,0.7c-0.6,0-1.1-0.1-1.6-0.3c-0.5-0.2-0.9-0.3-1.1-0.5l-0.3-0.3
		l0.7-1.1c0.1,0.1,0.2,0.1,0.3,0.2c0.1,0.1,0.4,0.2,0.8,0.4s0.8,0.2,1.2,0.2c0.4,0,0.7-0.1,1-0.3s0.4-0.4,0.4-0.7
		c0-0.3-0.1-0.5-0.4-0.8c-0.2-0.2-0.7-0.4-1.5-0.6c-0.7-0.2-1.2-0.5-1.6-0.9c-0.4-0.4-0.6-0.8-0.6-1.3c0-0.6,0.2-1.1,0.8-1.6
		c0.5-0.4,1.2-0.6,2.1-0.6c0.5,0,0.9,0.1,1.4,0.2c0.5,0.2,0.8,0.3,1,0.4l0.3,0.2l-0.7,1.1c-0.1,0-0.1-0.1-0.3-0.2
		c-0.1-0.1-0.3-0.2-0.7-0.3c-0.3-0.1-0.7-0.2-1-0.2c-0.4,0-0.7,0.1-0.9,0.2s-0.3,0.3-0.3,0.6c0,0.2,0.1,0.5,0.3,0.7s0.6,0.4,1.3,0.5
		C35.2,17.4,36,18.2,36,19.3z"/>
	<path class="st2" d="M47.3,15.5l-2.6,3.3l2.6,2.7h-1.9l-1.6-1.6c-0.5,0.6-1.1,1.1-1.6,1.3s-1.1,0.4-1.8,0.4c-0.9,0-1.6-0.3-2.3-0.8
		c-0.6-0.6-0.9-1.3-0.9-2.1c0-1.3,0.8-2.3,2.3-3.1c-0.8-0.9-1.2-1.7-1.2-2.4c0-0.7,0.3-1.2,0.8-1.7c0.5-0.5,1.2-0.7,2-0.7
		c0.9,0,1.5,0.2,2,0.7s0.8,1,0.8,1.7c0,1.1-0.7,2-2.2,2.7l1.9,1.9l1.9-2.3H47.3z M42.8,18.9L42.8,18.9l-2.4-2.4
		c-1.1,0.5-1.6,1.2-1.6,2c0,0.5,0.2,0.9,0.5,1.2c0.3,0.3,0.8,0.5,1.3,0.5C41.4,20.2,42.1,19.8,42.8,18.9z M40.1,14
		c0.2,0.2,0.4,0.6,0.8,1c0.6-0.2,1-0.5,1.2-0.8c0.3-0.3,0.4-0.6,0.4-0.9c0-0.3-0.1-0.6-0.4-0.9s-0.6-0.4-1-0.4c-0.4,0-0.7,0.1-1,0.3
		c-0.2,0.2-0.4,0.5-0.4,0.8C39.9,13.5,40,13.8,40.1,14z"/>
	<path class="st2" d="M55.4,18.6c0,0.9-0.3,1.6-1,2.2c-0.7,0.6-1.5,0.9-2.6,0.9c-0.5,0-0.9-0.1-1.4-0.2c-0.4-0.1-0.8-0.2-1.1-0.4
		c-0.3-0.1-0.5-0.3-0.8-0.4c-0.2-0.1-0.4-0.3-0.5-0.4l-0.1-0.2l1-1.1c0.1,0.1,0.2,0.2,0.4,0.3c0.2,0.1,0.5,0.3,1,0.5
		c0.5,0.2,1,0.3,1.6,0.3c0.5,0,0.9-0.1,1.3-0.4c0.3-0.3,0.5-0.6,0.5-1c0-0.5-0.2-0.8-0.6-1.2c-0.4-0.3-1.1-0.7-2-1
		c-1.8-0.7-2.6-1.6-2.6-2.9c0-0.8,0.3-1.5,1-2s1.5-0.8,2.5-0.8c0.4,0,0.8,0,1.2,0.1c0.4,0.1,0.7,0.2,1,0.3c0.3,0.1,0.5,0.2,0.7,0.4
		c0.2,0.1,0.3,0.2,0.4,0.3l0.1,0.1l-1,1.1c-0.1-0.1-0.2-0.2-0.3-0.3c-0.1-0.1-0.4-0.3-0.8-0.4c-0.4-0.2-0.8-0.3-1.3-0.3
		c-0.5,0-1,0.1-1.3,0.4c-0.3,0.3-0.5,0.6-0.5,0.9c0,0.4,0.2,0.7,0.5,1c0.3,0.3,0.9,0.6,1.6,0.8C54.4,16.1,55.4,17.2,55.4,18.6z"/>
	<path class="st2" d="M57.2,13.8h1.5l0.1,1.3c0.5-1,1.4-1.5,2.6-1.5c0.6,0,1.1,0.2,1.6,0.5s0.8,0.8,1,1.3c0.2-0.6,0.6-1,1.1-1.3
		s1-0.5,1.7-0.5c0.8,0,1.5,0.3,2.1,0.9c0.5,0.6,0.8,1.4,0.8,2.4v4.6H68v-4c0-0.8-0.2-1.3-0.5-1.7s-0.8-0.6-1.3-0.6
		c-0.6,0-1,0.2-1.4,0.6s-0.6,1-0.6,1.7v4h-1.7v-4c0-0.8-0.2-1.3-0.5-1.7c-0.3-0.4-0.8-0.6-1.3-0.6c-0.6,0-1,0.2-1.4,0.6
		s-0.6,1-0.6,1.7v4h-1.6V13.8z"/>
	<path class="st2" d="M73.4,10.9c0.2,0.2,0.3,0.5,0.3,0.8c0,0.3-0.1,0.6-0.3,0.8c-0.2,0.2-0.5,0.3-0.8,0.3c-0.3,0-0.6-0.1-0.8-0.3
		c-0.2-0.2-0.3-0.5-0.3-0.8c0-0.3,0.1-0.6,0.3-0.8s0.5-0.3,0.8-0.3C72.9,10.5,73.2,10.7,73.4,10.9z M71.7,13.8h1.7v7.7h-1.7V13.8z"
		/>
	<path class="st2" d="M75.7,11h1.7v10.5h-1.7V11z"/>
	<path class="st2" d="M80.7,17.9c0,0.7,0.3,1.2,0.8,1.7c0.5,0.4,1.1,0.6,1.8,0.6c0.3,0,0.6,0,0.8-0.1c0.3-0.1,0.5-0.2,0.7-0.3
		c0.2-0.1,0.3-0.2,0.5-0.3c0.1-0.1,0.2-0.2,0.3-0.3l0.1-0.1l1,0.9c0,0.1-0.1,0.1-0.1,0.2c-0.1,0.1-0.2,0.2-0.4,0.4
		c-0.2,0.2-0.4,0.4-0.7,0.5c-0.2,0.1-0.6,0.3-1,0.4c-0.4,0.1-0.8,0.2-1.3,0.2c-1.2,0-2.1-0.4-2.9-1.1c-0.8-0.8-1.2-1.7-1.2-2.8
		c0-1.1,0.4-2.1,1.2-2.9c0.8-0.8,1.8-1.2,2.9-1.2c1,0,1.9,0.4,2.7,1.1c0.7,0.7,1.1,1.6,1.1,2.6l-0.1,0.5H80.7z M81.6,15.4
		c-0.4,0.3-0.7,0.8-0.8,1.3h4.6c-0.1-0.5-0.3-1-0.8-1.3c-0.4-0.3-0.9-0.5-1.5-0.5C82.5,14.9,82,15.1,81.6,15.4z"/>
	<path class="st2" d="M93.8,19.3c0,0.7-0.3,1.2-0.8,1.7c-0.5,0.4-1.2,0.7-2.2,0.7c-0.6,0-1.1-0.1-1.6-0.3c-0.5-0.2-0.9-0.3-1.1-0.5
		l-0.3-0.3l0.7-1.1c0.1,0.1,0.2,0.1,0.3,0.2c0.1,0.1,0.4,0.2,0.8,0.4c0.4,0.2,0.8,0.2,1.2,0.2c0.4,0,0.7-0.1,1-0.3
		c0.2-0.2,0.4-0.4,0.4-0.7c0-0.3-0.1-0.5-0.4-0.8c-0.2-0.2-0.7-0.4-1.5-0.6c-0.7-0.2-1.2-0.5-1.6-0.9c-0.4-0.4-0.6-0.8-0.6-1.3
		c0-0.6,0.2-1.1,0.8-1.6c0.5-0.4,1.2-0.6,2.1-0.6c0.5,0,0.9,0.1,1.4,0.2c0.5,0.2,0.8,0.3,1,0.4l0.3,0.2L93,15.6
		c-0.1,0-0.1-0.1-0.3-0.2c-0.1-0.1-0.3-0.2-0.7-0.3c-0.3-0.1-0.7-0.2-1-0.2c-0.4,0-0.7,0.1-0.9,0.2s-0.3,0.3-0.3,0.6
		c0,0.2,0.1,0.5,0.3,0.7s0.6,0.4,1.3,0.5C93,17.4,93.8,18.2,93.8,19.3z"/>
</g>
</svg>
